# xmcd
#
# Track frame offsets: 
#        150
#        29740
#        58350
#        93935
#        114200
#        147250
#        173985
#        203745
#
# Disc length: 3108 seconds
#
# Revision: 1
# Processed by: cddbd v1.5.2PL0 Copyright (c) Steve Scherf et al.
# Submitted via: ExactAudioCopy v0.95a4
#
DISCID=700c2208
DTITLE=The Milt Jackson Big 4 - The Milt Jackson Big 4 At Montreux 75
DYEAR=1975
DGENRE=Jazz
TTITLE0=Funji Mama
TTITLE1=Everything Must Change
TTITLE2=Speed Ball
TTITLE3=Nature Boy
TTITLE4=Stella By Starlight
TTITLE5=Like Someone in Love
TTITLE6=Night Mist Blues
TTITLE7=Mack The Knife
EXTD=YEAR: 1975
EXTT0=
EXTT1=
EXTT2=
EXTT3=
EXTT4=
EXTT5=
EXTT6=
EXTT7=
PLAYORDER=
